# xmcd
#
# Track frame offsets: 
#        150
#        20071
#        37776
#        65127
#        77389
#        95717
#        116794
#        133667
#        152728
#        177373
#        199862
#        227221
#        249050
#        269555
#        290643
#        308290
#        328221
#
# Disc length: 4663 seconds
#
# Revision: 1
# Processed by: cddbd v1.5.2PL0 Copyright (c) Steve Scherf et al.
# Submitted via: ExactAudioCopy v1.0b3
#
DISCID=f0123511
DTITLE=Владимир Кузьмин - Лучшие песни - Часть II
DYEAR=2007
DGENRE=Rock
TTITLE0=Огонёк
TTITLE1=Пороги
TTITLE2=Я не забуду тебя
TTITLE3=Семнадцать лет
TTITLE4=Симона
TTITLE5=Пристань твоей надежды
TTITLE6=Мячик
TTITLE7=Капюшон
TTITLE8=Когда меня ты позовешь
TTITLE9=Ясная звезда
TTITLE10=Небесное притяжение
TTITLE11=Слезы в огне
TTITLE12=Белые дикие кони
TTITLE13=Ромео и Джульетта
TTITLE14=Мечты
TTITLE15=Баллада о королеве
TTITLE16=Сказка в моей жизни
EXTD=
EXTT0=
EXTT1=
EXTT2=
EXTT3=
EXTT4=
EXTT5=
EXTT6=
EXTT7=
EXTT8=
EXTT9=
EXTT10=
EXTT11=
EXTT12=
EXTT13=
EXTT14=
EXTT15=
EXTT16=
PLAYORDER=
